<svg width="110" height="51" viewBox="0 0 110 51" fill="none" xmlns="http://www.w3.org/2000/svg">
<rect width="110" height="51" fill="#FAFAFA"/>
<g clip-path="url(#clip0_1750_208)">
<path d="M69.9211 16.6915C70.0349 16.6915 70.1321 16.7283 70.2098 16.8021C70.2875 16.8758 70.3264 16.968 70.3264 17.076V29.235C70.3264 30.0303 70.2348 30.8019 70.0488 31.5525C69.8628 32.3004 69.5437 33.043 69.0885 33.7778C68.6333 34.5125 68.0643 35.1525 67.3815 35.7003C66.6987 36.2454 65.8188 36.6852 64.7363 37.0144C63.6566 37.3436 62.4437 37.5095 61.1003 37.5095C59.7569 37.5095 58.5495 37.3436 57.4753 37.0144C56.4012 36.6852 55.5213 36.2454 54.8302 35.7003C54.1418 35.1551 53.5673 34.5125 53.1149 33.7778C52.6597 33.043 52.3405 32.3004 52.1545 31.5525C51.9685 30.8045 51.877 30.0303 51.877 29.235V17.076C51.877 16.968 51.9158 16.8758 51.9935 16.8021C52.0712 16.7283 52.1684 16.6915 52.2822 16.6915H57.442C57.5558 16.6915 57.6558 16.7283 57.7418 16.8021C57.8278 16.8758 57.8695 16.968 57.8695 17.076V29.3377C57.8695 29.7564 57.9222 30.1514 58.0305 30.5201C58.1359 30.8914 58.3108 31.2443 58.5523 31.5814C58.7938 31.9185 59.1352 32.1845 59.5765 32.3794C60.0178 32.5743 60.5285 32.6717 61.1114 32.6717C61.6943 32.6717 62.205 32.5743 62.6463 32.3794C63.0876 32.1845 63.4235 31.9185 63.6594 31.5814C63.8925 31.2443 64.0674 30.8914 64.1812 30.5201C64.295 30.1488 64.3505 29.7538 64.3505 29.3377V17.076C64.3505 16.968 64.3894 16.8758 64.4671 16.8021C64.5448 16.7283 64.6419 16.6915 64.7557 16.6915H69.9156H69.9211Z" fill="#0080C4"/>
<path d="M88.3736 29.925L92.4898 33.0193C92.5758 33.0878 92.6258 33.1747 92.6397 33.2827C92.6535 33.3907 92.6258 33.4855 92.5536 33.5671C91.5017 34.7943 90.2193 35.7582 88.7039 36.4614C87.1912 37.1619 85.5646 37.5121 83.8327 37.5121C82.3116 37.5121 80.8628 37.2356 79.4833 36.6826C78.1038 36.1295 76.9131 35.3816 75.9111 34.4362C74.9091 33.4908 74.1125 32.3662 73.5241 31.0574C72.9329 29.7485 72.6387 28.3791 72.6387 26.9491C72.6387 25.5191 72.9329 24.1549 73.5241 22.8513C74.1153 21.5503 74.9091 20.4258 75.9111 19.483C76.9131 18.5376 78.1038 17.787 79.4833 17.2261C80.8628 16.6651 82.3116 16.386 83.8327 16.386C85.5535 16.386 87.1745 16.7362 88.6955 17.4394C90.2166 18.1399 91.4961 19.0985 92.5342 20.3126C92.6063 20.4074 92.6341 20.5075 92.6202 20.6154C92.6063 20.7234 92.5564 20.8103 92.4703 20.8788L88.3541 23.9547C88.2681 24.0232 88.1737 24.0522 88.0655 24.0469C87.96 24.039 87.8712 23.9969 87.799 23.9152C87.3022 23.3885 86.6999 22.9566 85.9976 22.6195C85.2926 22.2825 84.5738 22.1139 83.8327 22.1139C82.4116 22.1139 81.2014 22.5853 80.2077 23.5307C79.2113 24.4762 78.7145 25.6139 78.7145 26.9491C78.7145 28.2843 79.2113 29.4246 80.2077 30.3674C81.2042 31.3128 82.4116 31.7842 83.8327 31.7842C84.571 31.7842 85.2982 31.6157 86.0087 31.2786C86.7193 30.9415 87.3244 30.5017 87.8212 29.9645C87.8934 29.8828 87.9822 29.8407 88.0877 29.8328C88.1931 29.8249 88.2903 29.8565 88.3763 29.925" fill="#0080C4"/>
<path d="M49.5933 36.5193C49.5933 36.6404 49.5545 36.7379 49.4768 36.8116C49.3991 36.8854 49.3019 36.9222 49.1881 36.9222H33.7919C33.6642 36.9222 33.5615 36.8854 33.4838 36.8116C33.406 36.7379 33.3672 36.6404 33.3672 36.5193V36.1137C33.3672 36.0453 33.3811 35.9847 33.4088 35.932L41.0417 21.5266H33.7919C33.6642 21.5266 33.5615 21.4871 33.4838 21.4055C33.406 21.3238 33.3672 21.229 33.3672 21.1211V17.0944C33.3672 16.9733 33.406 16.8758 33.4838 16.8021C33.5615 16.7283 33.6642 16.6915 33.7919 16.6915H49.1659C49.2797 16.6915 49.3796 16.7283 49.4657 16.8021C49.5517 16.8758 49.5933 16.9733 49.5933 17.0944V17.5C49.5933 17.5684 49.5795 17.629 49.5517 17.6817L41.9188 32.0871H49.1687C49.2964 32.0871 49.3991 32.1266 49.4768 32.2082C49.5545 32.2899 49.5933 32.3847 49.5933 32.4926V36.5193Z" fill="#0080C4"/>
<path d="M35.8493 42.1893L35.2636 40.5908C35.2442 40.5381 35.2276 40.4538 35.2081 40.3379H35.197C35.1804 40.4433 35.1609 40.5275 35.1387 40.5908L34.5586 42.1893H35.8521H35.8493ZM37.1844 43.7536H36.4155L36.0353 42.7344H34.3727L34.0063 43.7536H33.2402L34.8223 39.7454H35.6134L37.1844 43.7536Z" fill="#1A1A18"/>
<path d="M41.8165 43.5877C41.4973 43.7457 41.1032 43.8247 40.6286 43.8247C40.0152 43.8247 39.5239 43.6404 39.1547 43.2743C38.7856 42.9056 38.5996 42.4237 38.5996 41.8285C38.5996 41.1859 38.8078 40.6697 39.2241 40.2721C39.6405 39.877 40.165 39.6795 40.8007 39.6795C41.2087 39.6795 41.5473 39.7348 41.8165 39.8454V40.5038C41.5306 40.3432 41.217 40.2642 40.8728 40.2642C40.4149 40.2642 40.0429 40.4038 39.7598 40.6803C39.4767 40.9568 39.3324 41.3281 39.3324 41.7943C39.3324 42.2604 39.4656 42.5896 39.7321 42.8503C39.9985 43.1137 40.3455 43.2427 40.7785 43.2427C41.1781 43.2427 41.5223 43.1532 41.8165 42.9741V43.5903V43.5877Z" fill="#1A1A18"/>
<path d="M46.5226 40.3116H45.3069V43.7536H44.6075V40.3116H43.3945V39.7454H46.5226V40.3116Z" fill="#1A1A18"/>
<path d="M49.0537 39.7454H48.332V43.7536H49.0537V39.7454Z" fill="#1A1A18"/>
<path d="M54.6028 39.7454L53.0846 43.7536H52.2991L50.8086 39.7454H51.5747L52.6183 42.7871C52.6516 42.8846 52.6766 42.9952 52.696 43.1242H52.7071C52.721 43.0189 52.7487 42.903 52.7931 42.7818L53.859 39.7454H54.6028Z" fill="#1A1A18"/>
<path d="M58.2223 42.1893L57.6367 40.5908C57.6173 40.5381 57.6006 40.4538 57.5812 40.3379H57.5701C57.5534 40.4433 57.534 40.5275 57.5118 40.5908L56.9317 42.1893H58.2251H58.2223ZM59.5574 43.7536H58.7886L58.4083 42.7344H56.7457L56.3793 43.7536H55.6133L57.1954 39.7454H57.9864L59.5574 43.7536Z" fill="#1A1A18"/>
<path d="M63.8019 40.3116H62.589V43.7536H61.8868V40.3116H60.6738V39.7454H63.8019V40.3116Z" fill="#1A1A18"/>
<path d="M67.9876 43.7536H65.6172V39.7454H67.8932V40.3116H66.3166V41.4467H67.7711V42.0076H66.3166V43.1927H67.9876V43.7536Z" fill="#1A1A18"/>
<path d="M76.3265 40.3116H74.7471V41.5151H76.2016V42.0761H74.7471V43.7536H74.0449V39.7454H76.3265V40.3116Z" fill="#1A1A18"/>
<path d="M81.5228 42.134C81.5228 43.2612 80.9594 43.8221 79.8381 43.8221C78.7167 43.8221 78.2227 43.2796 78.2227 42.1972V39.7454H78.9249V42.0603C78.9249 42.8477 79.2469 43.2401 79.8908 43.2401C80.5347 43.2401 80.8234 42.8609 80.8234 42.1024V39.748H81.5256V42.1366L81.5228 42.134Z" fill="#1A1A18"/>
<path d="M86.4222 40.3116H85.2093V43.7536H84.507V40.3116H83.2969V39.7454H86.4222V40.3116Z" fill="#1A1A18"/>
<path d="M91.4877 42.134C91.4877 43.2612 90.9242 43.8221 89.8029 43.8221C88.6816 43.8221 88.1875 43.2796 88.1875 42.1972V39.7454H88.8897V42.0603C88.8897 42.8477 89.2117 43.2401 89.8556 43.2401C90.4996 43.2401 90.7882 42.8609 90.7882 42.1024V39.748H91.4905V42.1366L91.4877 42.134Z" fill="#1A1A18"/>
<path d="M94.3744 40.2826V41.5889H94.9573C95.0655 41.5889 95.1655 41.5731 95.2571 41.5415C95.3486 41.5098 95.4291 41.4651 95.4958 41.4045C95.5624 41.3466 95.6151 41.2728 95.6512 41.1859C95.69 41.099 95.7067 41.0042 95.7067 40.8989C95.7067 40.7066 95.6429 40.5565 95.5152 40.4485C95.3875 40.3406 95.2043 40.2853 94.9628 40.2853H94.3744V40.2826ZM96.9418 43.7536H96.123L95.4486 42.6818C95.3875 42.5817 95.3292 42.4974 95.2709 42.4289C95.2126 42.3605 95.1544 42.3025 95.0933 42.2578C95.035 42.213 94.9684 42.1814 94.8962 42.1603C94.8268 42.1393 94.7463 42.1287 94.6575 42.1287H94.3744V43.7562H93.6777V39.748H95.0683C95.2682 39.748 95.4486 39.7691 95.6179 39.8139C95.7844 39.8586 95.9315 39.9271 96.0537 40.0166C96.1786 40.1062 96.2729 40.2194 96.3423 40.3537C96.4117 40.488 96.4478 40.6461 96.4478 40.8278C96.4478 40.97 96.4256 41.099 96.3812 41.2175C96.3368 41.336 96.2729 41.4414 96.1924 41.5336C96.1119 41.6257 96.012 41.7047 95.8982 41.7706C95.7844 41.8364 95.654 41.8864 95.5096 41.9233V41.9338C95.5873 41.976 95.6512 42.0208 95.7095 42.0682C95.7678 42.1182 95.8205 42.1682 95.8705 42.2209C95.9204 42.2736 95.9732 42.3315 96.0231 42.3973C96.0731 42.4632 96.1286 42.5396 96.1897 42.6265L96.9418 43.7536Z" fill="#1A1A18"/>
<path d="M101 43.7536H98.627V39.7454H100.906V40.3116H99.3292V41.4467H100.781V42.0076H99.3292V43.1927H101V43.7536Z" fill="#1A1A18"/>
<path fill-rule="evenodd" clip-rule="evenodd" d="M100.925 36.7695V16.4439C100.925 16.3359 100.831 16.357 100.803 16.4097L95.2268 24.5104C94.9964 24.8449 94.9492 25.0977 94.9492 25.44V36.6115C94.9492 36.7932 94.9409 36.9275 95.2296 36.9275H100.775C100.847 36.9275 100.925 36.8459 100.925 36.7721" fill="#0080C4"/>
<path fill-rule="evenodd" clip-rule="evenodd" d="M99.0857 16.3228H95.3136C95.0056 16.3228 94.9473 16.4308 94.9473 16.6572V19.3987C94.9473 19.5884 95.1166 19.5647 95.1776 19.5067L99.1468 16.5308C99.3355 16.4097 99.2494 16.3175 99.0857 16.3228Z" fill="#FDC300"/>
<path fill-rule="evenodd" clip-rule="evenodd" d="M20.5839 41.204C20.6922 39.9768 21.1279 38.5205 22.2465 36.9825C29.7628 26.6485 30.9841 26.2614 24.1533 14.3552C23.7703 13.6573 23.6565 14.163 23.6232 14.3842C23.4511 15.2532 22.9765 16.7306 21.6664 18.216C19.5958 20.5651 13.4617 23.957 17.1588 31.5074C17.2226 31.6285 17.3864 31.8023 17.4752 31.3678C17.6889 30.2617 18.3856 27.7836 20.5395 25.7031C22.4519 23.8543 24.7973 21.2656 24.8472 17.8894C24.8639 16.9045 24.875 16.9861 24.9721 17.8789C25.197 19.9541 24.8805 22.7456 22.5074 26.0428C16.0847 34.9652 16.6176 36.6559 20.7921 45.5204C20.3341 42.9843 20.4923 42.8342 20.5839 41.2067" fill="#FDC300"/>
<path fill-rule="evenodd" clip-rule="evenodd" d="M21.4994 45.4048C23.434 39.9666 33.2735 39.4899 29.7762 29.0822C29.7263 28.9374 29.6041 28.8478 29.5681 29.0822C29.1212 31.6446 27.442 33.2485 25.5351 34.9708L25.4241 35.0709L25.3408 35.1472C24.5359 35.8715 23.7171 36.6009 22.9871 37.3936L22.9621 37.4226L22.8067 37.5964C22.5236 37.9177 22.2544 38.2495 22.0046 38.5945L21.9962 38.6077C21.949 38.6735 21.9019 38.742 21.8574 38.8105V38.8157C21.3828 39.5163 20.9998 40.2773 20.7555 41.1359C20.6501 41.5046 20.5501 42.0892 20.5446 41.9049C20.4641 42.9504 20.4141 43.4033 20.7999 45.5233C21.0192 46 21.1552 46.3582 21.5077 45.4101" fill="#BCBCBD"/>
</g>
<defs>
<clipPath id="clip0_1750_208">
<rect width="85" height="32" fill="white" transform="translate(16 14)"/>
</clipPath>
</defs>
</svg>
